<?xml version="1.0" encoding="utf-8"?>
<!-- Generator: Adobe Illustrator 25.0.1, SVG Export Plug-In . SVG Version: 6.00 Build 0)  -->
<svg version="1.1" id="Layer_1" xmlns="http://www.w3.org/2000/svg" xmlns:xlink="http://www.w3.org/1999/xlink" x="0px" y="0px"
	 viewBox="0 0 141.7 141.7" style="enable-background:new 0 0 141.7 141.7;" xml:space="preserve">
<style type="text/css">
	.st0{fill:#F8CADB;stroke:#000000;stroke-width:2;stroke-miterlimit:10;}
	.st1{fill:none;stroke:#000000;stroke-width:2;stroke-miterlimit:10;}
	.st2{fill:none;stroke:#000000;stroke-width:2;stroke-miterlimit:10;stroke-dasharray:11.5834,11.5834;}
	.st3{fill:none;stroke:#000000;stroke-width:2;stroke-miterlimit:10;stroke-dasharray:11.7896,11.7896;}
</style>
<path class="st0" d="M72.3,33.6c-3.4-3.2-9.5-7.8-15.6-9.4c-5.6-1.4-16.1-4.2-28.1-0.4C24.3,25.2,14.3,28.4,8.3,38
	C0.5,50.5,5.1,64.6,6.5,69c2.6,8.2,7,13.5,11,18.1c2.5,2.9,8.1,9,30.9,23.1c7.4,4.6,13.7,8.2,18.1,10.7"/>
<path class="st0" d="M71.4,33.4c4.3-3.8,7.1-6.3,17.6-9.6c6.7-2.1,17.6-3.2,27,1.8c11.4,6.1,16.6,15.9,18.1,19.2
	c1.4,3,6.2,18-0.7,30.9c-2.3,4.2-4.9,7.4-13.9,14.2c-9.3,7.1-13.2,10.2-27,17.4c-5,2.6-15.2,8.2-27,13.7"/>
<g>
	<g>
		<path class="st1" d="M71.1,42.3c-0.9-1-2.3-2.6-4.2-4.2"/>
		<path class="st2" d="M57.2,31.7c-0.9-0.4-1.8-0.8-2.7-1.1c-2.9-1.1-11.4-4.1-21.6-1.3c-2.8,0.7-16.2,4.3-20.8,16.3
			c-3.9,10.1,0.9,19.8,4,26.1c4.5,9.2,11.1,14.7,15.2,18.1c4.8,4,6.7,5.6,17.9,12.5c2.4,1.5,4.7,2.8,6.8,4"/>
		<path class="st1" d="M61.2,109.1c2,1.1,3.8,2.1,5.2,3.1"/>
	</g>
</g>
<g>
	<g>
		<path class="st1" d="M71.1,41.5c0.9-0.9,2.6-2.4,4.6-3.9"/>
		<path class="st3" d="M85.8,31.6c4-1.6,11.5-3.6,19.2-2.4c9.7,1.6,13.5,6.7,15.5,8.8c6.1,6.6,7.7,13.8,8,15.2
			c0.5,2.2,2.1,10.3-1.9,18.1c-2,3.9-3.5,6.7-15.7,15.7c-14.6,10.8-12.7,8.8-17.6,12c-3.3,2.1-9.6,5.2-16.1,8.2"/>
		<path class="st1" d="M71.8,109.7c-1.9,0.9-3.8,1.7-5.5,2.5"/>
	</g>
</g>
</svg>
