<?xml version="1.0" encoding="utf-8"?>
<!-- Generator: Adobe Illustrator 26.3.1, SVG Export Plug-In . SVG Version: 6.00 Build 0)  -->
<svg version="1.1" xmlns="http://www.w3.org/2000/svg" xmlns:xlink="http://www.w3.org/1999/xlink" x="0px" y="0px"
	 viewBox="0 0 554.65 569.32" style="enable-background:new 0 0 554.65 569.32;" xml:space="preserve">
<style type="text/css">
	.st0{display:none;}
	.st1{fill:none;stroke:#000000;stroke-width:3;stroke-miterlimit:10;}
	.st2{fill:none;stroke:#000000;stroke-miterlimit:10;}
	.st3{fill:none;stroke:#000000;stroke-width:2;stroke-miterlimit:10;}
	.st4{fill:none;stroke:#000000;stroke-width:2;stroke-miterlimit:10;stroke-dasharray:11.5834,11.5834;}
	.st5{fill:none;stroke:#000000;stroke-width:2;stroke-miterlimit:10;stroke-dasharray:11.7896,11.7896;}
</style>
<g id="Layer_1" class="st0">
</g>
<g id="Layer_2">
	<path class="st1" d="M487.56,409.79c15.45-19.74,36.81-52.11,41.6-65.42"/>
	<path class="st1" d="M487.56,409.79"/>
	<path class="st1" d="M178.53,470.5c20.53,10.72,50.27,22.56,87.16,26.75c73.03,8.29,128.84-18.57,154.89-33.17"/>
	<path class="st1" d="M145.76,449.7c1.25,0.96,2.47,1.87,3.67,2.75c2.25,1.65,5.85,4.25,10.72,7.38"/>
	<path class="st1" d="M532.36,229.88c-1.76-5.61-34.6-111.41-52.27-153.96c-2.88-6.93-7.88-18.55-19.2-28.8
		c-10.92-9.89-23.05-14.27-28.8-16c-9.26-2.78-16.69-3.09-19.2-3.2c-26.86-1.23-136.53-5.33-245.33-6.4
		c-2.99-0.03-9.43,0.38-17.07,3.2c-13.37,4.93-21.66,14.4-26.67,20.27c-8.9,10.42-13.67,20.08-14.93,23.47
		c-14.93,40-22.2,61.82-28.8,84.8c-14.74,51.32-26.37,73.25-25.6,110.4c0.4,19.24,1.65,58.74,23.47,103.47
		c7.2,14.77,15.48,27.69,24.09,38.93"/>
	<path class="st1" d="M457.69,135.12c-10.5-35.53-19.08-62.31-23.47-74.67c-0.73-2.04-2.31-6.35-6.4-9.6
		c-8.14-6.48-28.49-5.33-32-5.33c-29.87,0-137.1,2.35-202.67-1.07c-2.05-0.11-8.9-0.5-17.07,2.13c-4.4,1.41-22.47,4.27-24.53,19.2
		c-2.13,15.47-4.14,51.61-3.2,54.93"/>
	<path class="st1" d="M529.69,248.72c1.58-1.03,3.87-2.91,4.8-5.87c1.26-3.98-0.64-7.72-2.13-10.67
		c-10.32-20.42-8.84-18.45-10.13-20.27c-10.32-14.5-22.85-24.94-25.6-27.2c-32.08-26.41-48.16-39.64-50.13-41.07
		c-20.16-14.56-33.3-24.04-53.33-34.13c-12.64-6.37-32.35-15.16-57.6-21.87c-20.61-5.48-49.75-12.95-87.47-9.6
		c-16.74,1.49-40.08,3.79-66.13,17.6c-9.46,5.01-23.46,14.34-37.33,30.93c-6.76,8.08-9.07,10.67-24.53,33.07
		c-7.74,11.22-14.98,23.9-18.13,32c-12.27,31.47-7.47,17.07-12.8,40.53c-3.72,16.35,1.81,20.33-6.4,26.67c-2.59,2-3.29,1.08-6.4,3.2
		c-10.65,7.28-11.05,24.05-11.2,30.4c-0.38,15.98,4.98,28.61,8.53,35.73c15.18,30.4,40.81,47.12,58.13,58.13
		c26.83,17.06,50.38,24.51,67.73,29.87c27.76,8.57,50.41,11.48,73.07,14.4c21.9,2.82,34.98,4.5,53.33,4.27
		c38.56-0.49,67.65-9.02,83.73-13.87c18.33-5.52,38.74-11.59,62.93-26.13c15.53-9.34,37.57-22.9,55.47-49.07
		c8.46-12.36,17.64-26.16,19.2-46.4c1.62-21.02-5.89-37.52-10.13-45.33"/>
	<path class="st1" d="M529.69,248.72c-2.52-4.63-11.17-20.83-16.53-28.27c-13.97-19.38-28.47-31.01-40-40
		c-41.43-32.33-62.15-48.49-83.73-59.73c-21.23-11.06-41.1-21.41-69.87-27.2c-19.04-3.83-65.6-12.53-116.8,10.13
		c-34.33,15.2-55.7,37.83-66.13,50.67c-28.91,35.57-35.77,72.07-37.33,81.6c-1.54,9.4-3.61,18.95-3.73,24.53"/>
	<path class="st1" d="M320.45,83.74c23.07,1.27,55.66,9.11,68.27,14.22c13.63,5.52,7.03,1.44,34.84,15.64
		c14.67,7.49,27.06,16.15,39.11,24.89c6.69,4.85,11.66,9.34,21.33,18.13c9.77,8.88,12.28,11.17,22.04,21.69
		c6.12,6.59,14.22,18.49,19.2,28.8"/>
	<path class="st1" d="M428.89,30.05c3.38,1.55,12.51,8.18,17.07,11.73c0,0,5.91,4.61,10.67,10.67
		c9.56,12.16,12.92,29.38,13.87,34.13c2.76,13.9,9.09,47.01,16,71.82"/>
	<path class="st1" d="M115.82,147.39"/>
	<path class="st1" d="M128.09,40.45c-2.24,6.6-5.19,16.27-6.67,28.27c-1.27,10.28-1.17,18.61-1.33,24.8
		c-0.4,14.95,0.19,40.99,0,66.13"/>
	<path class="st1" d="M95.56,259.65c-0.53,2.67-2.4,4.27-7.2,2.53c-4.03-1.46-3.9-3.37-1.87-7.6"/>
	<path class="st1" d="M82.49,264.72c-2.26,2.61-5.18,6.59-7.2,12c-5.41,14.45-0.39,28.19,3.2,37.6c5.87,15.38,14.82,26.62,24,36
		c15.43,15.78,34.83,29.74,60.8,41.6c35.83,16.37,65.72,20.32,105.6,25.6c18.86,2.5,38.75,5.03,65.6,4c30.89-1.19,53.54-6.44,60-8
		c11.6-2.81,31.06-7.64,54.4-19.2c16.72-8.28,33.08-16.39,49.6-33.6c16.16-16.84,23.61-33.15,28.8-44.8
		c8.62-19.35,8.48-28.67,8-33.6c-1.06-10.85-3.95-15.21-7.2-20.09"/>
	<path class="st2" d="M531.65,252.54c1.45-0.62,2.9-1.24,4.36-1.87"/>
	<polyline class="st2" points="535.65,250.5 534.14,246.85 535.56,244.54 535.74,241.17 540.45,240.28 541.07,240.37 541.69,240.99 
		544.62,245.43 543.65,247.48 539.82,248.54 540.54,251.3 542.22,249.52 544.09,248.81 544.98,246.85 545.6,247.03 546.67,249.43 
		546.05,251.12 544.8,252.01 538.94,255.12 	"/>
	<line class="st2" x1="538.05" y1="253.79" x2="530.94" y2="256.72"/>
	<line class="st2" x1="532.36" y1="252.19" x2="530.4" y2="252.99"/>
	<polyline class="st2" points="527.74,260.54 527.56,262.32 528.89,261.25 528.18,261.25 	"/>
	<polyline class="st2" points="530.36,252.39 528.29,249.12 526.62,246.05 525.69,245.52 524.42,245.32 523.42,245.32 
		522.42,246.39 520.96,250.32 521.02,251.32 521.22,252.45 523.36,254.92 526.36,258.59 527.62,259.85 528.16,260.79 530.29,260.72 
		531.69,259.32 531.49,257.12 530.69,254.92 530.42,252.12 	"/>
	<polyline class="st2" points="532.89,230.72 536.09,224.32 537.02,222.99 539.16,222.99 541.29,224.05 542.36,226.05 
		541.56,231.25 539.69,240.19 	"/>
	<polyline class="st2" points="541.82,227.25 540.56,225.99 539.66,225.85 539.19,226.69 538.89,227.22 539.26,228.62 
		540.12,230.22 540.62,230.29 541.52,229.22 541.82,228.29 541.92,227.39 	"/>
	<polygon class="st2" points="538.19,237.59 536.89,236.12 537.49,234.22 537.82,233.15 538.09,233.45 538.29,234.12 	"/>
	<path class="st3" d="M78.49,271.25c4.13,5.47,12.24,7.88,18.4,10.27c0,0,9.51,3.69,19.2,5.6c18.58,3.67,37.04,0.08,41.6-0.8
		c23.89-4.61,48.05-7.69,72-12c18.85-3.39,40.03-4.13,82.4-5.6c67.82-2.36,87.01,1.21,144.8-2.4c8.19-0.51,28.45-0.43,54.4-4.8
		c5.38-0.9,12.43-2.39,15.07-2.93"/>
	<polyline class="st3" points="82.58,265.97 82.05,263.3 79.38,261.34 	"/>
	<path class="st3" d="M317.25,174.94c-3.38-3.2-9.52-7.83-15.64-9.42c-5.57-1.45-16.11-4.18-28.09-0.36
		c-4.33,1.38-14.28,4.56-20.27,14.22c-7.72,12.46-3.19,26.54-1.78,30.93c2.65,8.23,7.03,13.46,11.02,18.13
		c2.52,2.95,8.1,9.01,30.93,23.11c7.38,4.56,13.66,8.16,18.13,10.67"/>
	<path class="st3" d="M316.36,174.77c4.3-3.83,7.15-6.3,17.6-9.6c6.73-2.12,17.65-3.24,27.02,1.78
		c11.35,6.08,16.57,15.89,18.13,19.2c1.4,2.97,6.19,18.01-0.71,30.93c-2.26,4.23-4.86,7.35-13.87,14.22
		c-9.33,7.11-13.21,10.19-26.98,17.42c-5,2.63-15.16,8.18-27,13.67"/>
	<g>
		<g>
			<path class="st3" d="M316.09,183.65c-0.9-1.04-2.34-2.58-4.24-4.24"/>
			<path class="st4" d="M302.23,173.04c-0.86-0.4-1.75-0.78-2.67-1.12c-2.9-1.07-11.39-4.06-21.6-1.33
				c-2.78,0.74-16.16,4.31-20.8,16.27c-3.92,10.09,0.86,19.78,4,26.13c4.55,9.21,11.08,14.73,15.2,18.13
				c4.79,3.96,6.67,5.63,17.87,12.53c2.4,1.48,4.7,2.8,6.84,3.99"/>
			<path class="st3" d="M306.13,250.45c2.01,1.12,3.76,2.12,5.16,3.07"/>
		</g>
	</g>
	<g>
		<g>
			<path class="st3" d="M316.09,182.85c0.92-0.92,2.59-2.35,4.59-3.86"/>
			<path class="st5" d="M330.76,172.95c3.97-1.58,11.46-3.62,19.2-2.36c9.74,1.59,13.49,6.67,15.47,8.8c6.15,6.62,7.71,13.79,8,15.2
				c0.46,2.25,2.1,10.34-1.87,18.13c-2,3.93-3.51,6.67-15.73,15.73c-14.58,10.81-12.73,8.84-17.6,12c-3.32,2.15-9.6,5.19-16.08,8.17
				"/>
			<path class="st3" d="M316.77,251.07c-1.9,0.85-3.75,1.68-5.48,2.45"/>
		</g>
	</g>
	<path class="st2" d="M92.09,299.12c6.21,12.42,13.39,17.85,20,20c5.94,1.94,8.89,0.4,15.2,2.4c11.13,3.52,16.82,12.98,20.8,18.4
		c6.06,8.26,17.64,15.37,40.8,29.6c26.23,16.11,74.74,27.77,122.4,26.4c84.83-2.45,146.2-45.58,169.6-64"/>
	<path class="st2" d="M436.89,286.32c4.37,3.06,9.55,7.66,13.6,14.4c13.54,22.52,2.34,48.56,0.8,52"/>
	<path class="st2" d="M47.65,266.23"/>
	<path class="st2" d="M54.22,285.25c-3.8,2.36-11.82,3.43-13.87,3.2c-3.56-0.4-7.59-2.68-12.27-2.93c-0.56-0.03-1.62-0.06-2.67,0.53
		c-1.29,0.73-1.9,2.02-2.4,3.47c-0.79,2.27-2.19,6.33-1.07,11.73c0.5,2.4,1.31,4.16,1.87,5.33c0.94,1.99,2.02,4.29,3.73,5.87
		c3.99,3.67,11.17,3.19,15.47,1.87c2.87-0.88,5.09-2.34,9.33-2.4c1.47-0.02,5.88,1.2,6.67,1.33"/>
	<path class="st2" d="M35.91,287c0.11-0.73,0.29-2.68-0.9-4.42c-0.92-1.34-2.22-1.91-2.93-2.21c-2.9-1.22-8.61-1.75-13.75,0.66
		c-7.45,3.5-10.55,10.36-10.37,17c0.27,9.7,3.98,12.74,8.34,16.34c3.86,3.19,14.51,7.31,17.81,2.65c0.46-0.65,0.69-1.52,0.78-2.44"
		/>
	<path class="st2" d="M31.85,285.81c0.04-0.73-0.91-2.29-2.86-2.94c-4.54-1.52-10.86,0.68-14.05,4.71c-4.9,6.21-4.41,15.52,0,21.05
		c2.92,3.66,8.18,6.89,12.02,7.29c1.2,0.12,3.26,0.5,4.13-0.74c0.22-0.32,0.39-0.73,0.51-1.22"/>
	<path class="st1" d="M114.22,405.25"/>
	<path class="st1" d="M434.94,456.01c-2.81,3.8-3.5,7.36-3.91,17.51c0,0-1.12,20.78-2.93,29.07c0,0-2.69,10.84-12.27,19.73
		c-22.4,20.8-56,28.27-56,28.27c-57.55,10.57-99.92,7.5-127.47,1.6c-29.05-6.22-62.57-19.88-70.93-45.33
		c-6.58-20.03,0.8-32.53-1.87-54.93c-0.35-2.92-7.3-4.96-17.07-0.8"/>
	<path class="st1" d="M444.89,449.79c-8.02,3.28-7.95,3.52-9.96,6.22"/>
	<path class="st1" d="M167.69,421.39c-0.23,2.13-0.21,1.49-0.67,4.93c0,0,0.27,3.73,2.13,9.6c2.16,6.8,4.48,20.73,6.4,26.67
		c5.33,16.53,14.42,26.17,49.07,38.4c76.36,26.96,144,0.27,157.33-4.27c10.75-3.66,24.27-10.4,32-17.87
		c3.07-2.96,8.4-16.2,9.6-26.93c0.59-5.3,2.12-9.65,3.2-12.27c1.22-2.93,3.43-4,8-8.53"/>
	<path class="st1" d="M114.22,405.25"/>
	<path class="st1" d="M147.96,449.52c-6.27,2-11.78,3.52-19.06-1.78l-24.8-25.42c-3.22-4.1-6.2-12.45-1.6-17.6l15.49-14.98
		c4.6-5.15,15.85,4.25,21.1,8.95l23.55,14.2c4.59,4.11,6.27,6.28,4.4,12.76"/>
	<path class="st1" d="M434.76,433.79c-2.12-4.22-1.77-9.29,2.13-11.73l35.24-19.82c4.33-2.71,10.03-1.39,12.74,2.94l6.32,10.11
		c2.71,4.33-4.64,11-8.97,13.7l-24,23.47c-4.33,2.71-11.52,0.42-14.22-3.91"/>
</g>
</svg>
