<?xml version="1.0" encoding="UTF-8" standalone="no"?>
<svg
   xmlns:dc="http://purl.org/dc/elements/1.1/"
   xmlns:cc="http://creativecommons.org/ns#"
   xmlns:rdf="http://www.w3.org/1999/02/22-rdf-syntax-ns#"
   xmlns:svg="http://www.w3.org/2000/svg"
   xmlns="http://www.w3.org/2000/svg"
   xmlns:sodipodi="http://sodipodi.sourceforge.net/DTD/sodipodi-0.dtd"
   xmlns:inkscape="http://www.inkscape.org/namespaces/inkscape"
   version="1.1"
   id="svg2"
   xml:space="preserve"
   width="739.53198"
   height="759.09601"
   viewBox="0 0 739.53198 759.09601"
   sodipodi:docname="heart.ai"><metadata
     id="metadata8"><rdf:RDF><cc:Work
         rdf:about=""><dc:format>image/svg+xml</dc:format><dc:type
           rdf:resource="http://purl.org/dc/dcmitype/StillImage" /></cc:Work></rdf:RDF></metadata><defs
     id="defs6"><clipPath
       clipPathUnits="userSpaceOnUse"
       id="clipPath18"><path
         d="M 0,569.322 H 554.649 V 0 H 0 Z"
         id="path16" /></clipPath></defs><sodipodi:namedview
     pagecolor="#ffffff"
     bordercolor="#666666"
     borderopacity="1"
     objecttolerance="10"
     gridtolerance="10"
     guidetolerance="10"
     inkscape:pageopacity="0"
     inkscape:pageshadow="2"
     inkscape:window-width="640"
     inkscape:window-height="480"
     id="namedview4" /><g
     id="g10"
     inkscape:groupmode="layer"
     inkscape:label="heart"
     transform="matrix(1.3333333,0,0,-1.3333333,0,759.096)"><g
       id="g12"><g
         id="g14"
         clip-path="url(#clipPath18)"><g
           id="g20"
           transform="translate(317.2463,394.3793)"><path
             d="m 0,0 c -3.378,3.2 -9.518,7.832 -15.644,9.422 -5.568,1.446 -16.107,4.182 -28.089,0.356 C -48.064,8.395 -58.011,5.219 -64,-4.444 c -7.721,-12.458 -3.191,-26.541 -1.778,-30.934 2.648,-8.231 7.027,-13.458 11.022,-18.133 2.518,-2.945 8.102,-9.007 30.934,-23.111 7.382,-4.56 13.656,-8.163 18.133,-10.667"
             style="fill:none;stroke:#1d1d1b;stroke-width:2;stroke-linecap:butt;stroke-linejoin:miter;stroke-miterlimit:10;stroke-dasharray:none;stroke-opacity:1"
             id="path22" /></g><g
           id="g24"
           transform="translate(316.3574,394.5571)"><path
             d="m 0,0 c 4.301,3.829 7.146,6.302 17.6,9.6 6.731,2.124 17.648,3.244 27.022,-1.778 11.352,-6.081 16.57,-15.888 18.134,-19.2 1.403,-2.971 6.185,-18.01 -0.712,-30.933 C 59.788,-46.54 57.185,-49.665 48.178,-56.533 38.849,-63.647 34.97,-66.721 21.2,-73.956 16.199,-76.583 6.038,-82.131 -5.8,-87.622"
             style="fill:none;stroke:#1d1d1b;stroke-width:2;stroke-linecap:butt;stroke-linejoin:miter;stroke-miterlimit:10;stroke-dasharray:none;stroke-opacity:1"
             id="path26" /></g><g
           id="g28"
           transform="translate(316.0907,385.6682)"><path
             d="M 0,0 C -0.902,1.044 -2.338,2.576 -4.238,4.24"
             style="fill:none;stroke:#1d1d1b;stroke-width:2;stroke-linecap:butt;stroke-linejoin:miter;stroke-miterlimit:10;stroke-dasharray:none;stroke-opacity:1"
             id="path30" /></g><g
           id="g32"
           transform="translate(302.2284,396.2852)"><path
             d="m 0,0 c -0.86,0.403 -1.751,0.778 -2.671,1.116 -2.904,1.069 -11.387,4.059 -21.6,1.334 -2.782,-0.743 -16.159,-4.312 -20.8,-16.267 -3.917,-10.09 0.864,-19.779 4,-26.133 4.546,-9.212 11.08,-14.727 15.2,-18.134 4.788,-3.96 6.674,-5.628 17.867,-12.533 2.4,-1.481 4.701,-2.8 6.839,-3.994"
             style="fill:none;stroke:#1d1d1b;stroke-width:2;stroke-linecap:butt;stroke-linejoin:miter;stroke-miterlimit:10;stroke-dasharray:11.583, 11.583;stroke-dashoffset:0;stroke-opacity:1"
             id="path34" /></g><g
           id="g36"
           transform="translate(306.1349,318.8688)"><path
             d="M 0,0 C 2.009,-1.118 3.756,-2.123 5.156,-3.067"
             style="fill:none;stroke:#1d1d1b;stroke-width:2;stroke-linecap:butt;stroke-linejoin:miter;stroke-miterlimit:10;stroke-dasharray:none;stroke-opacity:1"
             id="path38" /></g><g
           id="g40"
           transform="translate(316.0907,386.4682)"><path
             d="M 0,0 C 0.921,0.92 2.589,2.345 4.59,3.856"
             style="fill:none;stroke:#1d1d1b;stroke-width:2;stroke-linecap:butt;stroke-linejoin:miter;stroke-miterlimit:10;stroke-dasharray:none;stroke-opacity:1"
             id="path42" /></g><g
           id="g44"
           transform="translate(330.7608,396.3737)"><path
             d="m 0,0 c 3.969,1.579 11.462,3.624 19.197,2.361 9.737,-1.59 13.486,-6.67 15.466,-8.8 6.149,-6.615 7.713,-13.787 8,-15.2 0.459,-2.254 2.103,-10.339 -1.866,-18.133 -2,-3.926 -3.51,-6.667 -15.734,-15.734 -14.576,-10.811 -12.73,-8.838 -17.6,-12 -3.318,-2.154 -9.599,-5.192 -16.085,-8.172"
             style="fill:none;stroke:#1d1d1b;stroke-width:2;stroke-linecap:butt;stroke-linejoin:miter;stroke-miterlimit:10;stroke-dasharray:11.79, 11.79;stroke-dashoffset:0;stroke-opacity:1"
             id="path46" /></g><g
           id="g48"
           transform="translate(316.7677,318.256)"><path
             d="M 0,0 C -1.899,-0.855 -3.749,-1.681 -5.477,-2.455"
             style="fill:none;stroke:#1d1d1b;stroke-width:2;stroke-linecap:butt;stroke-linejoin:miter;stroke-miterlimit:10;stroke-dasharray:none;stroke-opacity:1"
             id="path50" /></g></g></g></g></svg>
