<?xml version="1.0" encoding="utf-8"?>
<!-- Generator: Adobe Illustrator 25.0.1, SVG Export Plug-In . SVG Version: 6.00 Build 0)  -->
<svg version="1.1" id="Layer_1" xmlns="http://www.w3.org/2000/svg" xmlns:xlink="http://www.w3.org/1999/xlink" x="0px" y="0px"
	 viewBox="0 0 491.1 362.3" style="enable-background:new 0 0 491.1 362.3;" xml:space="preserve">
<style type="text/css">
	.st0{fill:#E2DEF0;}
	.st1{display:none;}
	.st2{fill:none;stroke:#000000;stroke-width:3;stroke-miterlimit:10;}
	.st3{fill:#E2DEF0;stroke:#000000;stroke-width:3;stroke-miterlimit:10;}
	.st4{fill:none;stroke:#000000;stroke-miterlimit:10;}
	.st5{fill:none;stroke:#000000;stroke-width:2;stroke-miterlimit:10;}
	.st6{fill:none;stroke:#000000;stroke-width:2;stroke-miterlimit:10;stroke-dasharray:11.5834,11.5834;}
	.st7{fill:none;stroke:#000000;stroke-width:2;stroke-miterlimit:10;stroke-dasharray:11.7896,11.7896;}
</style>
<rect x="37.8" y="175.1" class="st0" width="421.6" height="20.8"/>
<g id="Layer_1_1_" class="st1">
	
		<image style="display:inline;overflow:visible;enable-background:new    ;" width="4000" height="3000" xlink:href="AF9C8494.jpeg"  transform="matrix(-0.1977 0 0 -0.1977 619.9285 426.8735)">
	</image>
</g>
<path class="st2" d="M427,336.1"/>
<path class="st3" d="M469.2,175c-2.5-4.6-11.2-20.8-16.5-28.3c-14-19.4-28.5-31-40-40c-41.4-32.3-62.1-48.5-83.7-59.7
	c-21.2-11.1-41.1-21.4-69.9-27.2C240,16,193.4,7.3,142.2,29.9c-34.3,15.2-55.7,37.8-66.1,50.7c-28.9,35.6-35.8,72.1-37.3,81.6
	c-1.5,9.4-3.6,19-3.7,24.5"/>
<path class="st2" d="M55.3,73.7"/>
<path class="st2" d="M35,185.9c-0.5,2.7-2.4,4.3-7.2,2.5c-4-1.5-3.9-3.4-1.9-7.6"/>
<path class="st3" d="M22,191c-2.3,2.6-5.2,6.6-7.2,12c-5.4,14.5-0.4,28.2,3.2,37.6c5.9,15.4,14.8,26.6,24,36
	c15.4,15.8,34.8,29.7,60.8,41.6c35.8,16.4,65.7,20.3,105.6,25.6c18.9,2.5,38.8,5,65.6,4c30.9-1.2,53.5-6.4,60-8
	c11.6-2.8,31.1-7.6,54.4-19.2c16.7-8.3,33.1-16.4,49.6-33.6c16.2-16.8,23.6-33.2,28.8-44.8c8.6-19.4,8.5-28.7,8-33.6
	c-1.1-10.9-4-15.2-7.2-20.1"/>
<polyline class="st4" points="467.2,186.8 467,188.6 468.4,187.5 467.6,187.5 "/>
<polyline class="st4" points="467.8,175.7 466.1,172.3 465.2,171.8 463.9,171.6 462.9,171.6 461.9,172.7 460.4,176.6 460.5,177.6 
	460.7,178.7 462.8,181.2 465.8,184.9 467.1,186.1 467.6,187.1 468.9,187.5 "/>
<path class="st5" d="M18,197.5c4.1,5.5,12.2,7.9,18.4,10.3c0,0,9.5,3.7,19.2,5.6c18.6,3.7,37,0.1,41.6-0.8c23.9-4.6,48.1-7.7,72-12
	c18.9-3.4,40-4.1,82.4-5.6c67.8-2.4,87,1.2,144.8-2.4c8.2-0.5,28.5-0.4,54.4-4.8c5.4-0.9,12.4-2.4,15.1-2.9"/>
<polyline class="st5" points="22,192.2 21.5,189.6 18.9,187.6 "/>
<path class="st5" d="M256.7,101.2c-3.4-3.2-9.5-7.8-15.6-9.4c-5.6-1.4-16.1-4.2-28.1-0.4c-4.3,1.4-14.3,4.6-20.3,14.2
	c-7.7,12.5-3.2,26.5-1.8,30.9c2.6,8.2,7,13.5,11,18.1c2.5,2.9,8.1,9,30.9,23.1c7.4,4.6,13.7,8.2,18.1,10.7"/>
<path class="st5" d="M255.8,101c4.3-3.8,7.1-6.3,17.6-9.6c6.7-2.1,17.6-3.2,27,1.8c11.4,6.1,16.6,15.9,18.1,19.2
	c1.4,3,6.2,18-0.7,30.9c-2.3,4.2-4.9,7.4-13.9,14.2c-9.3,7.1-13.2,10.2-27,17.4c-5,2.6-15.2,8.2-27,13.7"/>
<g>
	<g>
		<path class="st5" d="M255.6,109.9c-0.9-1-2.3-2.6-4.2-4.2"/>
		<path class="st6" d="M241.7,99.3c-0.9-0.4-1.8-0.8-2.7-1.1c-2.9-1.1-11.4-4.1-21.6-1.3c-2.8,0.7-16.2,4.3-20.8,16.3
			c-3.9,10.1,0.9,19.8,4,26.1c4.5,9.2,11.1,14.7,15.2,18.1c4.8,4,6.7,5.6,17.9,12.5c2.4,1.5,4.7,2.8,6.8,4"/>
		<path class="st5" d="M245.6,176.7c2,1.1,3.8,2.1,5.2,3.1"/>
	</g>
</g>
<g>
	<g>
		<path class="st5" d="M255.6,109.1c0.9-0.9,2.6-2.4,4.6-3.9"/>
		<path class="st7" d="M270.2,99.2c4-1.6,11.5-3.6,19.2-2.4c9.7,1.6,13.5,6.7,15.5,8.8c6.1,6.6,7.7,13.8,8,15.2
			c0.5,2.2,2.1,10.3-1.9,18.1c-2,3.9-3.5,6.7-15.7,15.7c-14.6,10.8-12.7,8.8-17.6,12c-3.3,2.1-9.6,5.2-16.1,8.2"/>
		<path class="st5" d="M256.2,177.3c-1.9,0.9-3.7,1.7-5.5,2.5"/>
	</g>
</g>
<path class="st4" d="M31.6,225.4c6.2,12.4,13.4,17.9,20,20c5.9,1.9,8.9,0.4,15.2,2.4c11.1,3.5,16.8,13,20.8,18.4
	c6.1,8.3,17.6,15.4,40.8,29.6c26.2,16.1,74.7,27.8,122.4,26.4c84.8-2.5,146.2-45.6,169.6-64"/>
<path class="st4" d="M376.4,212.6c4.4,3.1,9.5,7.7,13.6,14.4c13.5,22.5,2.3,48.6,0.8,52"/>
<path class="st2" d="M53.7,331.5"/>
<path class="st2" d="M53.7,331.5"/>
<path class="st4" d="M24.5,187.1c-3.9,3.7,0.9-0.3-2.9,2.4"/>
</svg>
