<?xml version="1.0" encoding="utf-8"?>
<!-- Generator: Adobe Illustrator 26.3.1, SVG Export Plug-In . SVG Version: 6.00 Build 0)  -->
<svg version="1.1" xmlns="http://www.w3.org/2000/svg" xmlns:xlink="http://www.w3.org/1999/xlink" x="0px" y="0px"
	 viewBox="0 0 554.65 569.32" style="enable-background:new 0 0 554.65 569.32;" xml:space="preserve">
<style type="text/css">
	.st0{display:none;}
	.st1{fill:none;stroke:#000000;stroke-width:3;stroke-miterlimit:10;}
	.st2{fill:none;stroke:#000000;stroke-miterlimit:10;}
	.st3{fill:none;stroke:#000000;stroke-width:2;stroke-miterlimit:10;}
</style>
<g id="Layer_1" class="st0">
</g>
<g id="Layer_2">
	<path class="st1" d="M487.56,409.79"/>
	<path class="st1" d="M529.69,248.72c-2.52-4.63-11.17-20.83-16.53-28.27c-13.97-19.38-28.47-31.01-40-40
		c-41.43-32.33-62.15-48.49-83.73-59.73c-21.23-11.06-41.1-21.41-69.87-27.2c-19.04-3.83-65.6-12.53-116.8,10.13
		c-34.33,15.2-55.7,37.83-66.13,50.67c-28.91,35.57-35.77,72.07-37.33,81.6c-1.54,9.4-3.61,18.95-3.73,24.53"/>
	<path class="st1" d="M115.82,147.39"/>
	<path class="st1" d="M120.09,159.65"/>
	<path class="st1" d="M120.09,93.52"/>
	<path class="st1" d="M95.56,259.65c-0.53,2.67-2.4,4.27-7.2,2.53c-4.03-1.46-3.9-3.37-1.87-7.6l-5.51,7.64"/>
	<path class="st1" d="M82.49,264.72c-2.26,2.61-5.18,6.59-7.2,12c-5.41,14.45-0.39,28.19,3.2,37.6c5.87,15.38,14.82,26.62,24,36
		c15.43,15.78,34.83,29.74,60.8,41.6c35.83,16.37,65.72,20.32,105.6,25.6c18.86,2.5,38.75,5.03,65.6,4c30.89-1.19,53.54-6.44,60-8
		c11.6-2.81,31.06-7.64,54.4-19.2c16.72-8.28,33.08-16.39,49.6-33.6c16.16-16.84,23.61-33.15,28.8-44.8
		c8.62-19.35,8.48-28.67,8-33.6c-1.06-10.85-3.95-15.21-7.2-20.09"/>
	<polyline class="st2" points="527.74,260.54 527.56,262.32 528.89,261.25 528.18,261.25 	"/>
	<path class="st2" d="M528.37,249.25c-0.88-1.69-1.77-4.27-4.19-3.87c-2.07,0.35-3.05,3.16-3.07,5c-0.04,3.31,4.82,9.23,7.92,10.31"
		/>
	<path class="st3" d="M526.36,258.59c-2.64,0.54-9.69,2.03-15.07,2.93c-25.95,4.37-46.21,4.29-54.4,4.8
		c-57.79,3.61-76.98,0.04-144.8,2.4c-42.37,1.47-63.55,2.21-82.4,5.6c-23.95,4.31-48.11,7.39-72,12c-4.56,0.88-23.02,4.47-41.6,0.8
		c-9.69-1.91-19.2-5.6-19.2-5.6c-6.16-2.39-14.27-4.8-18.4-10.27"/>
	<polyline class="st3" points="82.58,265.97 82.05,263.3 79.38,261.34 	"/>
	<path class="st3" d="M317.25,174.94c-3.38-3.2-9.52-7.83-15.64-9.42c-5.57-1.45-16.11-4.18-28.09-0.36
		c-4.33,1.38-14.28,4.56-20.27,14.22c-7.72,12.46-3.19,26.54-1.78,30.93c2.65,8.23,7.03,13.46,11.02,18.13
		c2.52,2.95,8.1,9.01,30.93,23.11c7.38,4.56,13.66,8.16,18.13,10.67"/>
	<path class="st3" d="M316.36,174.77c4.3-3.83,7.15-6.3,17.6-9.6c6.73-2.12,17.65-3.24,27.02,1.78
		c11.35,6.08,16.57,15.89,18.13,19.2c1.4,2.97,6.19,18.01-0.71,30.93c-2.26,4.23-4.86,7.35-13.87,14.22
		c-9.33,7.11-13.21,10.19-26.98,17.42c-5,2.63-15.16,8.18-27,13.67"/>
	<path class="st2" d="M92.09,299.12c6.21,12.42,13.39,17.85,20,20c5.94,1.94,8.89,0.4,15.2,2.4c11.13,3.52,16.82,12.98,20.8,18.4
		c6.06,8.26,17.64,15.37,40.8,29.6c26.23,16.11,74.74,27.77,122.4,26.4c84.83-2.45,146.2-45.58,169.6-64"/>
	<path class="st2" d="M436.89,286.32c4.37,3.06,9.55,7.66,13.6,14.4c13.54,22.52,2.34,48.56,0.8,52"/>
	<path class="st1" d="M114.22,405.25"/>
	<path class="st1" d="M114.22,405.25"/>
</g>
</svg>
